<svg version="1.1" id="Layer_1" xmlns="http://www.w3.org/2000/svg" xmlns:xlink="http://www.w3.org/1999/xlink" x="0px" y="0px"
	 width="100%" viewBox="0 0 1024 1024" enable-background="new 0 0 1024 1024" xml:space="preserve">
<path fill="#000000" opacity="1.000000" stroke="none" 
	d="
M561.250427,788.799927 
	C555.437866,784.304626 550.248779,785.363342 544.342224,788.412415 
	C528.510498,796.585144 512.383118,804.185913 496.360321,811.987427 
	C494.741882,812.775391 493.216858,813.908691 491.015228,813.772034 
	C489.087860,810.825989 489.956055,807.403870 489.952026,804.220032 
	C489.872955,741.732971 489.888855,679.245850 489.880371,616.758728 
	C489.878754,604.761230 490.142792,592.753479 489.711578,580.770996 
	C489.520172,575.451477 491.311401,572.612305 496.121613,570.561523 
	C505.921722,566.383179 515.526978,561.744629 525.175232,557.216187 
	C526.905212,556.404236 529.033020,555.996887 530.179810,553.173645 
	C514.953857,544.688782 498.242279,539.047546 482.181671,529.676880 
	C490.623505,525.692566 497.943939,522.184998 505.308868,518.773560 
	C516.491699,513.593689 527.709167,508.488434 538.903564,503.333405 
	C541.798767,502.000214 544.418945,500.884308 547.845093,502.565887 
	C582.830444,519.736450 617.897461,536.740784 652.933899,553.807434 
	C653.942322,554.298645 655.165405,554.612488 655.667664,556.673401 
	C649.569580,559.521484 643.365845,562.512024 637.086426,565.334351 
	C617.188110,574.277649 597.259949,583.154602 577.349121,592.070068 
	C575.982544,592.682007 574.645386,593.366455 573.326294,594.076172 
	C571.646973,594.979431 570.292603,596.105103 570.375916,598.301514 
	C570.468079,600.731995 572.355408,601.085938 574.071777,601.711304 
	C590.460938,607.682312 587.158630,604.994873 587.213135,620.875854 
	C587.383545,670.531799 587.271851,720.188599 587.321289,769.845032 
	C587.323547,772.152649 586.416870,774.998901 589.715515,776.245483 
	C592.271301,774.935303 591.596924,772.539490 591.598572,770.517212 
	C591.640686,718.194641 591.722290,665.871765 591.519470,613.549988 
	C591.498779,608.205627 593.215393,605.697388 598.076477,603.558228 
	C625.661743,591.419067 653.071960,578.882141 680.555969,566.512207 
	C682.024597,565.851196 683.446899,564.771973 685.355896,565.312439 
	C686.917053,567.144165 686.265930,569.393616 686.267761,571.461243 
	C686.292480,600.122070 686.257874,628.782898 686.244446,657.443726 
	C686.240906,664.978882 688.078796,667.735779 693.146118,667.857849 
	C698.647339,667.990479 703.670715,662.898743 703.686707,656.808105 
	C703.763489,627.647583 703.754089,598.486816 703.766541,569.326172 
	C703.772583,555.162415 703.799194,540.998352 703.723328,526.835022 
	C703.706787,523.752991 704.345520,521.357849 707.441345,519.927490 
	C726.339355,511.196014 745.197754,502.378601 764.086792,493.627533 
	C765.094910,493.160522 766.261047,493.034698 767.268066,492.772339 
	C768.896973,494.541809 768.307068,496.463104 768.307617,498.205688 
	C768.334106,582.188721 768.283813,666.171814 768.428345,750.154602 
	C768.436279,754.767090 766.903992,757.178589 762.782959,758.763611 
	C757.399719,760.834167 752.168152,763.299133 746.978882,765.547729 
	C745.017944,763.409790 745.696228,761.316040 745.690308,759.430847 
	C745.622620,737.768799 745.671387,716.106384 745.606079,694.444336 
	C745.558044,678.485535 733.474060,669.968018 718.914429,676.386780 
	C693.317871,687.671326 668.022888,699.639587 642.593384,711.303650 
	C637.446960,713.664185 632.277161,715.974915 627.095459,718.257202 
	C617.651245,722.416931 613.301941,729.705505 613.328003,739.943176 
	C613.386108,762.771667 613.316162,785.600525 613.298706,808.429199 
	C613.297302,810.231934 613.298523,812.034668 613.298523,815.399658 
	C595.396362,806.254578 578.488342,797.617310 561.250427,788.799927 
M725.378174,592.914124 
	C725.683044,596.960754 724.687378,601.106506 726.020264,605.084961 
	C738.781372,603.654663 743.677612,599.227051 743.661743,589.337952 
	C743.642761,577.493286 744.853577,577.874451 733.333435,582.426453 
	C728.707092,584.254517 724.766541,586.101929 725.378174,592.914124 
M725.350098,551.496582 
	C725.602722,554.402527 724.746338,557.428894 726.285461,560.741455 
	C731.930725,559.402161 736.803589,556.509033 741.976624,554.449646 
	C742.517273,554.234436 743.177429,553.551880 743.240479,553.021606 
	C743.976257,546.840576 743.694214,540.692200 743.404541,533.794434 
	C739.513245,535.406494 736.746765,536.472961 734.046082,537.685974 
	C724.953613,541.769836 725.327820,539.285278 725.350098,551.496582 
M636.910645,667.610535 
	C636.717407,665.164185 637.341614,662.632141 636.013245,659.830994 
	C630.861206,660.445007 626.389465,662.940002 621.871826,665.272644 
	C620.734253,665.859924 620.343628,667.002808 620.339844,668.226379 
	C620.322205,673.992615 620.331970,679.758789 620.331970,686.174194 
	C622.840393,685.220642 624.681946,684.581604 626.475708,683.828918 
	C639.307312,678.443970 636.681763,680.212524 636.910645,667.610535 
M519.077942,641.250488 
	C519.245972,643.174500 518.594177,645.242554 520.330811,647.337585 
	C525.386230,646.176331 529.957764,643.489990 534.706787,641.285522 
	C535.797302,640.779358 536.530029,639.730957 536.541443,638.489136 
	C536.591064,633.090149 536.562744,627.690552 536.562744,622.318481 
	C533.311768,621.962463 531.503113,623.814026 529.313416,624.334717 
	C520.678284,626.388184 517.439392,631.767334 519.077942,641.250488 
M655.118164,671.463135 
	C658.308838,669.618652 663.523010,669.995911 664.438721,665.798279 
	C665.680176,660.108154 666.466431,654.087708 664.147522,647.453308 
	C659.259521,649.592590 654.598694,651.592529 649.977478,653.680298 
	C648.671021,654.270447 648.033813,655.494019 648.025513,656.913086 
	C647.993225,662.461609 648.012329,668.010376 648.012329,673.544250 
	C650.993835,673.740417 652.594116,672.374268 655.118164,671.463135 
M520.859619,585.588135 
	C517.457458,591.154175 519.290771,597.150879 519.601318,602.972717 
	C519.689941,604.634644 521.575012,604.482300 522.880737,603.939392 
	C526.719543,602.343201 530.527832,600.673279 534.344788,599.024719 
	C535.886597,598.358826 536.632568,597.158630 536.632874,595.492615 
	C536.633667,591.496277 536.654480,587.499573 536.612976,583.503662 
	C536.584961,580.801270 535.176880,579.876770 532.691040,580.827332 
	C528.963257,582.252808 525.276489,583.785767 520.859619,585.588135 
M519.156738,676.868408 
	C519.479980,681.219666 518.509949,685.683533 519.942810,689.993713 
	C535.578857,686.146118 537.249329,683.975464 536.739624,669.551880 
	C536.610291,665.890259 535.563660,664.542236 531.964050,666.207886 
	C528.951294,667.601990 525.904907,668.928223 522.836914,670.196228 
	C520.212830,671.280823 518.879456,673.095398 519.156738,676.868408 
M519.144836,726.291931 
	C519.296753,728.405212 518.758484,730.592773 519.767883,732.611267 
	C532.692505,731.811279 539.009338,723.681946 536.633423,711.119019 
	C536.236145,709.018188 535.339233,708.343262 533.250488,708.697937 
	C522.949890,710.447266 519.201538,714.838562 519.144836,726.291931 
z"/>
<path fill="#000000" opacity="1.000000" stroke="none" 
	d="
M551.657715,146.838562 
	C559.792725,148.321915 565.806213,152.466339 571.027771,158.182190 
	C584.062561,172.450989 597.366028,186.475372 610.328735,200.808502 
	C621.694031,213.375290 617.416809,233.308167 601.431152,241.120102 
	C596.470032,243.544525 596.212524,245.812759 597.538513,250.640198 
	C601.523987,265.149658 600.047058,279.053986 590.402954,291.240509 
	C588.451843,293.705994 588.381836,295.339600 590.319824,297.687561 
	C596.780701,305.515350 596.752075,305.564911 604.346802,298.855896 
	C610.449463,293.464905 610.412109,293.501434 616.040833,299.266113 
	C635.477600,319.172211 654.848511,339.144409 674.482361,358.854523 
	C678.095276,362.481537 679.198853,366.173859 679.557678,371.135101 
	C680.112732,378.807831 677.871765,384.311371 671.856506,389.203857 
	C663.599182,395.919983 655.936584,403.377472 648.157104,410.664520 
	C645.902161,412.776703 644.351685,412.613953 642.348999,410.449280 
	C639.182251,407.026398 635.881958,403.717743 632.500000,400.506317 
	C629.789673,397.932617 628.489441,395.070709 628.727417,391.210052 
	C628.888916,388.589508 629.943726,384.622528 626.491760,383.796692 
	C622.624084,382.871368 618.267029,382.224762 614.390320,384.613831 
	C614.251099,384.699585 614.149353,384.843964 614.019897,384.948303 
	C606.922729,390.669678 606.847168,390.736542 600.757202,383.879364 
	C598.347290,381.165863 594.261780,379.195496 593.906677,375.567749 
	C593.514465,371.559875 598.364624,370.277679 600.658203,367.574554 
	C602.822571,365.023651 603.062073,362.629791 602.046448,359.773254 
	C600.979797,356.772705 598.304871,357.069824 596.137512,357.426910 
	C585.875732,359.117584 578.635559,354.885132 571.974243,347.276031 
	C563.560913,337.665771 563.187988,338.143799 572.403931,329.643616 
	C582.104553,320.696381 581.036316,323.424408 572.958984,314.497711 
	C569.796021,311.002136 566.977478,309.638214 561.812134,310.952454 
	C547.949524,314.479614 534.716736,312.290405 522.867249,303.748047 
	C522.348450,303.373993 521.695984,303.185333 521.088013,302.902008 
	C518.876587,304.105713 518.484863,306.396851 517.606506,308.268188 
	C510.027832,324.414886 497.325195,332.100189 479.541107,332.407410 
	C444.385986,333.014648 409.228241,332.095398 374.088104,332.652954 
	C360.381531,332.870392 348.598969,329.191589 337.331879,322.200439 
	C332.711761,319.333710 328.131683,316.363007 323.007996,314.229919 
	C321.904327,316.359039 322.406769,318.379608 322.370483,320.314453 
	C322.222137,328.221405 319.033051,332.199219 311.007690,332.480865 
	C299.535339,332.883514 288.036255,332.520935 276.548584,332.493591 
	C265.383301,332.467010 254.217834,332.402802 243.052795,332.444977 
	C233.170151,332.482300 229.823975,329.299561 229.820450,319.440002 
	C229.808395,285.610138 229.843658,251.780289 229.837982,217.950439 
	C229.834213,195.453125 229.798615,172.955780 229.762405,150.458481 
	C229.748932,142.081345 232.905151,138.106491 241.240311,137.993851 
	C264.733429,137.676376 288.232544,137.779465 311.729279,137.776871 
	C315.078644,137.776489 318.187744,139.184860 319.907684,141.919312 
	C322.276917,145.685989 325.544922,145.835678 329.326263,145.832489 
	C396.652496,145.775635 463.978729,145.792297 531.304993,145.760193 
	C537.970947,145.757019 544.619873,145.880524 551.657715,146.838562 
M479.772217,267.483643 
	C460.275970,267.440491 440.779572,267.430756 421.283569,267.336182 
	C414.404327,267.302826 410.641571,263.721191 409.522858,256.962067 
	C408.420746,250.303055 411.325775,245.156754 415.665009,240.825790 
	C431.228912,225.291763 446.960358,209.925095 462.689270,194.557404 
	C465.602661,191.710968 469.055115,189.714600 473.328491,189.678314 
	C494.818359,189.495895 516.315308,190.071304 537.797485,189.086700 
	C543.522217,188.824310 548.033569,191.002121 551.841736,195.290237 
	C558.589478,202.888412 565.661987,210.198547 572.397400,217.807343 
	C575.825684,221.680267 580.000366,222.935577 584.891602,222.626419 
	C588.113403,222.422775 590.697571,221.013687 592.133362,218.069336 
	C593.677063,214.903534 591.698853,212.684021 589.720337,210.571396 
	C579.356873,199.505295 568.858215,188.562286 558.663757,177.342804 
	C553.498352,171.658066 547.677917,169.171906 539.805176,169.197922 
	C469.981506,169.428726 400.156708,169.320526 330.332214,169.309799 
	C328.499329,169.309509 326.665131,169.316299 324.834045,169.250549 
	C323.666260,169.208588 322.166290,169.140457 322.000641,167.754791 
	C321.532959,163.842041 318.746399,164.214279 316.066559,164.228134 
	C311.400574,164.252289 306.712097,164.559906 302.074768,164.204407 
	C297.321075,163.839981 296.196411,165.773911 296.226959,170.236862 
	C296.401672,195.732407 296.302948,221.229797 296.303986,246.726562 
	C296.304749,265.557495 296.436829,284.389740 296.233490,303.218384 
	C296.185699,307.645844 297.626007,309.185791 301.976929,308.903961 
	C306.456848,308.613800 310.989502,308.608765 315.465851,308.935120 
	C320.281647,309.286285 322.030731,307.473083 321.731537,302.651367 
	C321.388733,297.126984 321.652069,291.565002 321.652069,284.720551 
	C331.551270,291.145844 340.146729,296.775848 348.796417,302.321289 
	C354.578430,306.028290 360.573486,309.561737 367.663452,309.580872 
	C404.158417,309.679352 440.654388,309.716125 477.148590,309.516296 
	C484.985748,309.473389 491.881165,306.638580 495.802429,299.119659 
	C502.909760,285.491547 496.508698,272.278687 479.772217,267.483643 
M484.345062,245.715363 
	C493.486694,246.260529 501.198364,250.134689 508.495789,257.038452 
	C512.182800,236.608002 524.053772,224.738739 543.348816,220.004837 
	C540.443420,214.200363 537.133484,210.864105 530.428528,211.196075 
	C519.796021,211.722519 509.117340,211.290298 498.458496,211.338852 
	C496.711182,211.346817 494.794525,210.724945 493.268372,212.095047 
	C492.805145,213.745804 493.911102,214.673004 494.749176,215.646332 
	C497.394958,218.719055 497.996735,221.522141 494.567444,224.635620 
	C491.499146,227.421432 488.865967,230.681442 485.970886,233.664368 
	C482.351135,237.393951 478.659882,241.054153 474.049072,245.702393 
	C478.186157,245.702393 480.814301,245.702393 484.345062,245.715363 
M595.859070,337.080200 
	C595.130737,337.930450 593.924194,338.456818 593.972595,340.162903 
	C598.039795,341.001709 602.200134,340.492645 606.318176,340.656586 
	C607.953064,340.721680 609.888428,340.172119 611.103027,341.515076 
	C615.893921,346.812347 622.328918,350.973267 621.482727,359.801453 
	C620.828735,366.624969 621.458008,367.408020 628.097046,366.531189 
	C636.991882,365.356506 641.755493,370.068207 645.784851,376.612183 
	C646.766418,378.206360 647.304077,380.073883 648.071594,381.876099 
	C650.887817,380.331116 652.720154,378.169128 654.713440,376.163757 
	C656.512512,374.353638 656.418823,372.933136 654.630676,371.117157 
	C640.253418,356.515656 625.926941,341.864014 611.627808,327.185974 
	C609.855652,325.366852 608.386475,325.325745 606.564514,327.084595 
	C603.210266,330.322601 599.739075,333.439453 595.859070,337.080200 
M557.755005,252.890503 
	C556.830200,251.724457 556.045959,250.402466 554.955811,249.420013 
	C550.804932,245.679367 545.327698,245.232803 540.708191,248.113342 
	C535.933289,251.090775 533.667786,256.408752 535.107056,261.261108 
	C537.265686,268.538788 544.111328,272.512146 550.871887,270.425629 
	C557.415833,268.405975 562.012085,259.935883 557.755005,252.890503 
M260.075378,164.737976 
	C258.682007,165.259674 257.191925,165.610199 255.912415,166.333344 
	C250.964813,169.129608 248.870712,174.693283 250.427750,180.543716 
	C251.617233,185.013062 256.964020,189.326553 261.414459,189.407135 
	C266.882446,189.506165 271.665527,186.307327 273.222839,181.152313 
	C276.028351,171.865372 269.233368,164.123108 260.075378,164.737976 
z"/>
<path fill="#000000" opacity="1.000000" stroke="none" 
	d="
M200.278915,797.784302 
	C192.232330,793.010132 184.284042,788.755371 177.111359,783.292175 
	C158.500000,769.116455 152.209305,745.056396 161.768539,723.787292 
	C166.218124,713.887146 173.667343,706.594299 183.282791,701.593079 
	C200.126831,692.832153 217.009521,684.145447 233.873520,675.422852 
	C234.766281,674.961121 235.639145,674.467285 236.788452,674.835205 
	C238.432983,675.975769 237.892639,677.778015 237.867981,679.363037 
	C237.746246,687.189392 237.433304,695.014587 237.433929,702.840149 
	C237.434143,705.561279 236.470718,707.111572 234.052444,708.252075 
	C227.876694,711.164673 221.786560,714.259033 215.665634,717.287659 
	C214.024063,718.099976 212.347626,718.856384 210.768005,719.777039 
	C201.843597,724.978821 201.345123,732.945496 209.981720,738.593689 
	C216.658279,742.960022 223.813889,746.596252 230.773651,750.526733 
	C275.008698,775.508545 319.260834,800.460144 363.473053,825.482239 
	C369.998840,829.175537 376.756622,831.018311 384.375366,831.007446 
	C488.188690,830.859253 592.002686,830.752441 695.815125,831.062866 
	C706.889771,831.095947 715.711487,826.663147 724.811096,821.808350 
	C753.759460,806.364380 782.723267,790.949524 811.678406,775.518250 
	C816.924500,772.722351 821.203430,768.885864 821.506348,762.629883 
	C821.803650,756.490356 817.893555,752.454041 812.872437,749.576660 
	C805.502563,745.353516 798.143188,741.090820 790.580933,737.234009 
	C786.765625,735.288147 785.453613,732.763794 785.604980,728.563965 
	C785.903870,720.274231 785.693054,711.966064 785.693054,703.598694 
	C788.964600,702.975342 790.950928,704.764954 793.059082,705.831360 
	C809.415466,714.105286 825.182861,723.449829 841.153503,732.426392 
	C855.889465,740.709045 864.080688,753.172852 864.020020,770.117065 
	C863.957947,787.456116 855.475830,800.231323 840.342773,808.455139 
	C816.636475,821.337952 792.834656,834.044861 769.068115,846.816772 
	C755.429810,854.145996 742.058960,862.011047 727.723999,867.962769 
	C720.266113,871.059143 712.429016,872.390625 704.334900,872.390198 
	C593.522339,872.384583 482.709808,872.405151 371.897278,872.423096 
	C361.418182,872.424805 350.918610,873.091309 340.479309,871.687683 
	C326.891937,869.860718 314.545227,864.657227 302.801605,857.772156 
	C268.750153,837.808472 234.667511,817.897888 200.278915,797.784302 
z"/>
<path fill="#000000" opacity="1.000000" stroke="none" 
	d="
M380.377014,698.000122 
	C380.365723,711.830872 380.349213,725.161621 380.347137,738.492371 
	C380.346771,740.982971 380.124542,743.624451 383.476074,744.399963 
	C385.582886,742.923462 384.848816,740.743530 384.849731,738.876465 
	C384.885071,668.390320 384.928253,597.904114 384.774323,527.418335 
	C384.761810,521.682922 385.545166,517.525879 391.708130,515.366516 
	C395.643188,513.987793 395.705627,508.985382 392.203949,505.504181 
	C389.696716,503.011627 386.496613,501.525635 383.331848,499.996643 
	C347.640015,482.753174 311.964783,465.475311 276.290283,448.195953 
	C274.820770,447.484192 273.225983,446.920715 272.226898,445.538086 
	C272.852234,443.552124 274.647827,443.203552 276.069946,442.463013 
	C285.524078,437.539948 295.077118,432.800751 304.437866,427.707458 
	C307.782990,425.887329 310.413940,426.858887 313.341858,428.308990 
	C338.414886,440.726593 363.492462,453.135254 388.602905,465.476959 
	C401.754913,471.941162 414.934052,478.353973 428.193176,484.594025 
	C431.676422,486.233307 432.939667,488.188202 432.810730,492.251617 
	C432.049835,516.232239 432.316315,540.225525 432.607605,564.215332 
	C432.753174,576.204773 432.798309,588.195496 432.981201,600.184204 
	C433.022949,602.920532 431.783508,604.525452 429.410950,605.564880 
	C426.513916,606.834106 423.697357,608.297546 420.763245,609.469788 
	C410.237762,613.674866 406.204590,621.578247 406.334473,632.656555 
	C406.606079,655.815430 406.398376,678.979919 406.392090,702.142090 
	C406.385742,725.637512 406.384857,749.132935 406.381622,772.628357 
	C406.381378,774.428711 406.381622,776.229065 406.381622,777.748840 
	C404.072601,779.182983 402.680359,777.952454 401.291565,777.218933 
	C368.005188,759.639038 334.765503,741.970154 301.417664,724.507812 
	C297.196777,722.297485 295.504272,719.677917 295.515503,714.815186 
	C295.672760,646.828796 295.514191,578.841370 295.819550,510.855988 
	C295.851990,503.636169 293.878296,499.226501 287.148254,496.763306 
	C284.244812,495.700653 281.709961,493.614075 277.207947,493.554871 
	C277.207947,566.031006 277.207947,638.301208 277.207947,710.571411 
	C276.675476,710.845520 276.143005,711.119629 275.610535,711.393738 
	C269.260712,707.956299 262.840546,704.639587 256.603729,701.008118 
	C254.721649,699.912231 255.060699,697.412720 255.024612,695.463684 
	C254.916656,689.633667 254.967010,683.800598 254.968033,677.968689 
	C254.980667,606.482971 254.993835,534.997253 255.021423,463.511505 
	C255.021988,462.044189 254.695480,460.499573 255.670807,459.153809 
	C257.635406,458.009827 259.211945,459.289612 260.790955,460.063995 
	C286.061707,472.457367 311.312805,484.890808 336.575378,497.300812 
	C349.279358,503.541565 361.918365,509.923981 374.753967,515.882019 
	C379.004150,517.854858 380.510284,520.355957 380.497620,525.034668 
	C380.341888,582.522827 380.385040,640.011536 380.377014,698.000122 
M360.307648,616.065674 
	C360.238068,611.088074 360.066742,606.109375 360.121399,601.133118 
	C360.218109,592.330627 360.478333,583.529968 360.612915,574.727661 
	C360.652527,572.135681 360.704407,569.420105 356.969727,568.447327 
	C356.969727,597.637695 356.969727,626.404907 356.969727,655.077820 
	C358.669495,655.282715 359.750732,654.834290 359.804230,654.138550 
	C360.756653,641.759949 360.105103,629.358215 360.307648,616.065674 
M328.914978,571.447327 
	C328.913818,569.621155 328.969299,567.792664 328.896545,565.969360 
	C328.812653,563.865906 329.406555,561.329956 327.052216,560.149353 
	C322.535004,557.884094 317.876068,555.901367 312.414673,553.408203 
	C312.414673,560.045105 312.375946,565.635986 312.461823,571.224854 
	C312.473022,571.954407 312.929810,572.994080 313.510498,573.347656 
	C318.105957,576.145752 322.566071,579.314087 328.094849,580.174316 
	C329.295624,577.359009 328.699036,574.835449 328.914978,571.447327 
M328.949951,653.899292 
	C328.530457,649.990967 318.577789,642.269043 314.522064,643.625000 
	C310.128754,645.093933 313.005585,649.623596 312.387360,652.731689 
	C312.005615,654.651001 312.311340,656.708923 312.326416,658.704529 
	C312.335297,659.875488 312.250488,661.257507 313.302490,661.924561 
	C317.985657,664.893799 322.822479,667.573975 328.961060,669.753479 
	C328.961060,664.057617 328.961060,659.433655 328.949951,653.899292 
M328.995636,614.528564 
	C328.934570,605.427856 322.765045,599.530029 312.283539,599.148193 
	C312.816772,605.219055 310.132721,612.083496 313.409943,617.070007 
	C316.345306,621.536438 322.753937,623.173035 328.256134,625.226807 
	C329.323517,621.438049 328.887543,618.437378 328.995636,614.528564 
M328.674103,518.417786 
	C324.591858,513.462219 318.574554,512.339111 312.362366,509.487549 
	C312.362366,515.880005 312.327911,521.305115 312.402008,526.728699 
	C312.412354,527.484741 312.735931,528.561401 313.288910,528.934021 
	C317.883972,532.030884 322.599091,534.923157 328.502563,536.176086 
	C329.278870,530.116455 328.848907,524.678040 328.674103,518.417786 
M318.741760,709.723022 
	C321.811951,711.207031 324.650330,713.257446 328.803680,714.088867 
	C328.803680,707.871094 328.825775,702.133606 328.771088,696.396790 
	C328.765350,695.791626 328.481720,694.903809 328.033203,694.632141 
	C323.329102,691.782288 318.603333,688.936523 312.301147,687.466797 
	C312.301147,692.080200 312.639221,695.729675 312.220001,699.290039 
	C311.627869,704.318909 313.425995,707.588257 318.741760,709.723022 
z"/>
<path fill="#000000" opacity="1.000000" stroke="none" 
	d="
M551.602783,374.039490 
	C551.890564,388.553131 551.940918,402.702454 552.088013,416.850739 
	C552.113647,419.318787 550.699646,420.406189 548.779724,421.276642 
	C540.321289,425.111481 536.981079,431.714874 537.234680,440.912689 
	C537.588013,453.730591 537.309875,466.565399 537.350586,479.392822 
	C537.358215,481.808411 537.253723,483.783295 534.519348,485.059235 
	C507.362793,497.730774 480.265472,510.529266 453.142090,523.272095 
	C452.727081,523.467102 452.194763,523.412476 451.677032,523.479492 
	C450.058685,521.950928 450.726868,520.011353 450.714600,518.296570 
	C450.639435,507.801788 450.318481,497.291138 450.772736,486.815857 
	C451.127289,478.639069 447.635864,473.902466 440.421173,470.531982 
	C415.078369,458.692596 389.887817,446.527069 364.662048,434.438171 
	C362.783142,433.537720 360.520508,433.072601 359.247986,430.586823 
	C364.003967,426.947235 369.410889,424.503510 374.611145,421.713409 
	C417.015594,398.962463 459.435242,376.239655 501.780518,353.379150 
	C505.390564,351.430206 508.370850,351.236725 512.030701,353.150055 
	C523.688477,359.244598 535.499634,365.045349 547.227600,371.006805 
	C548.691589,371.751007 550.011536,372.778534 551.602783,374.039490 
M477.834900,439.327332 
	C482.822021,439.036896 486.779175,436.154999 491.002716,433.989746 
	C491.767975,433.597412 492.576904,432.495880 492.643921,431.663666 
	C493.117523,425.781891 493.320251,419.888275 492.601440,414.020081 
	C477.665619,415.104095 470.679596,426.861572 477.834900,439.327332 
M479.601807,484.946167 
	C483.040314,483.289948 486.474060,481.623810 489.919281,479.981659 
	C491.690643,479.137390 492.958374,477.925507 492.957397,475.826538 
	C492.955292,471.345032 492.956238,466.862701 492.871429,462.382324 
	C492.818359,459.580048 491.310425,458.947388 488.893097,460.011322 
	C485.553314,461.481323 482.215271,462.955841 478.892151,464.462921 
	C477.042023,465.302002 476.172302,466.775726 476.179504,468.819946 
	C476.195374,473.302185 476.117493,477.785431 476.189484,482.266479 
	C476.216156,483.928772 476.285217,485.840118 479.601807,484.946167 
z"/>
<path fill="#000000" opacity="1.000000" stroke="none" 
	d="
M630.995850,808.907837 
	C631.037109,786.787354 631.130676,765.152832 631.043396,743.518982 
	C631.027405,739.548523 632.270142,737.136963 636.057068,735.400513 
	C664.191772,722.499817 692.236938,709.403564 720.316528,696.382629 
	C722.542236,695.350525 724.731262,694.136169 727.108337,694.044800 
	C728.613342,695.466553 728.249023,697.042847 728.248291,698.475769 
	C728.236877,721.620972 728.158203,744.766235 728.187683,767.911316 
	C728.192322,771.556946 727.298584,774.130920 723.624268,775.833130 
	C693.878967,789.613708 664.207947,803.554626 634.507324,817.431824 
	C633.924072,817.704468 633.256653,817.796875 632.463745,818.019714 
	C630.347595,815.343872 631.285461,812.251404 630.995850,808.907837 
M660.434814,776.870239 
	C663.636719,775.058655 668.801880,775.150146 669.479980,770.854492 
	C670.333679,765.446533 669.685791,759.801453 669.685791,753.683960 
	C663.637207,755.438477 658.926758,757.838989 654.170471,760.113159 
	C653.234619,760.560547 652.506714,761.394775 652.495850,762.441528 
	C652.438232,767.995972 652.468750,773.551331 652.468750,779.083130 
	C655.681763,779.448486 657.629700,778.031921 660.434814,776.870239 
M692.916138,749.626770 
	C693.253357,753.368042 692.612122,757.202881 693.831726,761.190063 
	C699.111267,759.980408 703.584473,757.476746 708.117126,755.156494 
	C708.765625,754.824585 709.490295,753.933594 709.541260,753.253479 
	C709.967163,747.565796 710.381165,741.861267 709.553162,735.863098 
	C705.173950,736.556274 702.113342,738.771912 698.674927,739.793396 
	C693.972534,741.190491 692.301819,744.084961 692.916138,749.626770 
z"/>
<path fill="#000000" opacity="1.000000" stroke="none" 
	d="
M423.605011,689.999878 
	C423.604340,668.865234 423.604340,648.230530 423.604340,627.967712 
	C425.254028,626.661316 426.310760,627.432434 427.309296,627.916382 
	C441.097626,634.599731 454.857971,641.341003 468.660461,647.994873 
	C471.347565,649.290283 472.457520,650.969543 472.450043,654.172791 
	C472.330688,705.170105 472.372284,756.167786 472.355865,807.165344 
	C472.355377,808.620300 472.766754,810.162842 471.800629,811.514954 
	C470.526520,812.056213 469.530273,811.313049 468.526581,810.791016 
	C455.520477,804.026855 442.609161,797.072266 429.476837,790.563477 
	C425.175201,788.431396 423.484558,785.899658 423.519592,780.994995 
	C423.735107,750.831299 423.614471,720.665222 423.605011,689.999878 
M450.436920,752.996765 
	C453.232544,754.264771 455.778717,756.274963 459.521912,756.188171 
	C460.172577,750.525696 460.044891,745.089600 459.741455,739.648438 
	C459.683685,738.612854 459.336273,737.664551 458.401398,737.110779 
	C453.896973,734.442139 449.302032,731.973633 444.163849,730.311646 
	C442.452972,734.203796 443.307068,737.744202 442.898010,741.138977 
	C442.210754,746.842041 444.100891,750.836975 450.436920,752.996765 
M456.715668,690.927795 
	C452.622833,688.954163 448.754791,686.409180 444.051941,685.482239 
	C442.447144,689.211853 443.650238,692.798279 442.955078,696.104065 
	C441.774963,701.715759 444.319580,704.536743 449.055542,706.919067 
	C460.057190,712.453186 460.067139,712.624329 459.813080,700.298645 
	C459.749298,697.203247 461.136566,693.487854 456.715668,690.927795 
z"/>
<path fill="#000000" opacity="1.000000" stroke="none" 
	d="
M662.425293,453.045471 
	C662.424255,481.397003 662.424255,509.294312 662.424255,536.786865 
	C661.093506,537.868225 660.322937,537.376587 659.614685,537.035156 
	C650.773621,532.772095 641.950073,528.472778 633.108643,524.210632 
	C630.608521,523.005432 628.690247,521.701050 628.698425,518.344055 
	C628.771545,488.383850 628.701782,458.423309 628.692200,428.462891 
	C628.691956,427.658997 628.896179,426.855042 629.028992,425.873596 
	C633.218323,425.427399 636.010864,428.090424 639.042419,429.852020 
	C642.177490,431.673798 644.624268,431.710602 647.531372,429.203400 
	C651.906982,425.429749 656.709656,422.160767 662.925598,418.830353 
	C663.365112,430.652374 663.163879,441.618317 662.425293,453.045471 
z"/>
<path fill="#000000" opacity="1.000000" stroke="none" 
	d="
M596.540161,506.577759 
	C584.381592,500.656555 572.615967,494.776703 560.703308,489.211395 
	C556.422974,487.211731 554.498108,484.635193 554.627808,479.677338 
	C554.954224,467.197174 554.707520,454.702026 554.691406,442.212891 
	C554.689087,440.411285 554.691101,438.609680 554.691101,436.966125 
	C557.572327,435.683350 559.391113,437.139130 561.229797,438.060303 
	C568.520203,441.712708 575.815979,445.361603 582.993652,449.227295 
	C585.197632,450.414307 586.814453,450.273621 588.949402,449.085388 
	C594.617920,445.930664 600.448303,443.066254 606.222717,440.102661 
	C607.529175,439.432159 608.768433,438.439606 610.886963,439.153870 
	C610.886963,463.451355 610.886963,487.898132 610.886963,513.463562 
	C605.743652,510.996826 601.309326,508.870056 596.540161,506.577759 
z"/>
<path fill="#000000" opacity="1.000000" stroke="none" 
	d="
M697.776672,445.165161 
	C717.012085,455.311340 735.922546,465.280304 755.292786,475.491638 
	C752.697327,478.437958 749.871826,479.129150 747.412781,480.281708 
	C732.343628,487.344360 717.204468,494.257324 702.118103,501.283447 
	C699.408569,502.545380 696.732849,503.941040 694.222290,505.556000 
	C689.129395,508.832092 686.306702,513.490479 686.312317,519.684570 
	C686.320740,528.967529 686.314514,538.250488 686.314514,547.698059 
	C681.408569,547.785706 679.645081,545.944885 679.657593,541.724731 
	C679.757141,508.086823 679.742554,474.448578 679.782043,440.810486 
	C679.783569,439.523346 679.463745,438.121521 681.074463,436.607849 
	C686.772156,438.531006 691.920105,442.167389 697.776672,445.165161 
z"/>
<path fill="#000000" opacity="1.000000" stroke="none" 
	d="
M472.478760,570.650024 
	C472.830475,573.547546 473.266876,576.016235 472.118469,579.281006 
	C465.171204,576.825928 458.607697,573.877319 452.249664,570.482361 
	C450.612762,569.608215 450.798004,567.589783 450.785339,565.930786 
	C450.744690,560.598145 450.726868,555.264771 450.757263,549.932068 
	C450.787415,544.642822 458.841614,538.515198 463.778534,540.602417 
	C471.850708,544.015259 479.626709,548.128479 488.624268,552.476074 
	C480.376770,556.836853 469.954285,558.125977 472.478760,570.650024 
z"/>
<path fill="#000000" opacity="1.000000" stroke="none" 
	d="
M467.152557,596.719727 
	C471.427490,597.996765 472.792145,600.301697 472.525757,604.620483 
	C472.036987,612.544312 472.386444,620.519897 472.386444,629.587097 
	C462.740051,625.125916 453.853607,621.016113 444.967163,616.906311 
	C444.665222,616.462402 444.363312,616.018433 444.061401,615.574463 
	C451.955688,614.455627 450.693085,609.145996 450.690613,604.411316 
	C450.688293,599.948669 450.690125,595.486084 450.690125,590.281860 
	C456.994202,591.337708 461.699921,594.517944 467.152557,596.719727 
z"/>
</svg>