<svg version="1.1" id="Layer_1" xmlns="http://www.w3.org/2000/svg" xmlns:xlink="http://www.w3.org/1999/xlink" x="0px" y="0px"
	 width="100%" viewBox="0 0 500 500" enable-background="new 0 0 500 500" xml:space="preserve">
<path fill="#000000" opacity="0.000000" stroke="none" 
	d="
M314.000000,501.000000 
	C209.333359,501.000000 105.166718,501.000000 1.000056,501.000000 
	C1.000037,334.333405 1.000037,167.666794 1.000019,1.000145 
	C167.666565,1.000097 334.333130,1.000097 500.999756,1.000048 
	C500.999847,167.666519 500.999847,334.333038 500.999939,500.999786 
	C438.833344,501.000000 376.666656,501.000000 314.000000,501.000000 
M337.189545,341.789490 
	C337.189545,341.789490 337.306763,341.769714 337.109863,341.237274 
	C336.786530,341.060760 336.463196,340.884216 335.821259,340.138519 
	C333.532806,338.470917 331.244324,336.803345 328.346130,334.817474 
	C326.949615,333.691711 325.566620,332.548676 324.154327,331.443085 
	C317.526337,326.254456 310.890320,321.076050 304.209595,315.505829 
	C304.209595,315.505829 304.246765,315.116486 304.616486,315.150879 
	C304.903107,315.164642 305.099060,315.038055 306.016266,314.864380 
	C307.509583,314.282745 309.002899,313.701111 310.737030,313.314331 
	C310.737030,313.314331 310.988678,313.133606 311.765656,313.194519 
	C322.597198,309.447174 332.212769,303.839752 340.263519,294.561676 
	C343.837982,288.352875 347.412476,282.144104 351.549988,275.474121 
	C352.619720,270.634644 353.689484,265.795135 354.968384,260.043518 
	C355.632751,250.409744 355.245728,240.906662 351.375397,231.123825 
	C350.897217,230.066162 350.419037,229.008499 349.979858,227.381409 
	C349.647156,226.935959 349.314453,226.490509 349.009552,226.012390 
	C349.009552,226.012390 348.966766,226.009766 348.954773,225.471802 
	C348.764191,225.184555 348.573608,224.897308 348.462250,224.723114 
	C348.462250,224.723114 348.415375,224.592789 348.270660,223.906693 
	C345.891876,220.170395 343.513123,216.434097 340.955353,212.061737 
	C335.862183,207.301544 330.768982,202.541367 325.335114,197.147705 
	C318.476868,192.780624 311.618622,188.413544 304.355194,183.516373 
	C294.443726,180.017487 284.752258,174.646790 274.570221,173.450180 
	C258.545471,171.566910 242.190567,172.492767 225.289337,172.210007 
	C215.956451,178.500015 206.623566,184.790039 196.721054,191.123825 
	C196.476059,191.402435 196.231064,191.681061 195.396637,192.015091 
	C194.948318,192.396210 194.500000,192.777313 193.431992,193.302795 
	C191.919220,194.438919 190.406448,195.575043 188.184860,196.846436 
	C182.139282,201.279099 176.093719,205.711761 169.619247,210.825943 
	C169.527924,219.124924 169.460541,227.424271 169.334702,235.722733 
	C169.275925,239.599030 171.298523,240.969009 174.946960,240.938629 
	C184.251648,240.861084 193.563766,240.733307 202.857941,241.056381 
	C204.957047,241.129379 206.995209,242.955566 208.989105,244.792252 
	C209.003036,245.883698 209.016968,246.975143 208.653259,248.422318 
	C208.244156,248.975693 207.835052,249.529068 206.793182,250.312500 
	C206.655807,250.489975 206.518448,250.667435 205.521118,250.822540 
	C195.875061,250.892288 186.228989,250.958405 176.582977,251.033020 
	C170.087357,251.083267 169.181656,252.019730 169.213928,258.636810 
	C169.218796,259.634125 169.304520,260.631683 169.291534,261.628326 
	C169.232300,266.170929 171.260834,268.181732 175.992020,268.114075 
	C189.297058,267.923828 202.606323,268.018188 215.913925,268.022491 
	C225.566223,268.025604 226.717499,266.772522 226.154556,256.030518 
	C226.087204,249.000076 226.019852,241.969620 226.130356,234.094696 
	C226.033661,232.077377 225.936966,230.060074 225.998383,227.288467 
	C225.945999,226.523361 225.893600,225.758240 225.981186,224.114960 
	C226.145554,221.475433 226.309921,218.835922 226.806641,216.435455 
	C227.145340,216.524948 227.352371,216.398605 228.254517,216.439529 
	C243.424332,216.375137 258.594147,216.310745 274.525360,216.614609 
	C279.970490,219.430405 285.415619,222.246201 291.095032,225.709167 
	C294.022156,231.017242 296.949249,236.325317 299.699310,242.145233 
	C299.881866,243.418793 300.064423,244.692368 300.069641,246.789627 
	C300.207336,248.170013 300.345032,249.550385 300.180084,251.701630 
	C300.176727,252.798019 300.173401,253.894394 299.964874,255.736877 
	C297.894714,260.781799 295.824554,265.826752 293.163116,271.145203 
	C291.077484,273.024292 288.991821,274.903381 286.314056,276.984406 
	C286.030151,277.277588 285.746277,277.570801 285.175598,277.768188 
	C285.175598,277.768188 285.009552,278.020874 284.227203,278.080536 
	C280.328217,278.727539 276.431732,279.917816 272.529846,279.935852 
	C240.541748,280.083801 208.552460,279.969025 176.564270,280.106567 
	C174.363892,280.116028 172.169464,281.515503 169.685608,282.309662 
	C169.685608,282.309662 169.588364,282.581970 169.588364,282.581970 
	C169.588364,282.581970 169.784851,282.794586 169.366058,283.618866 
	C169.447281,285.751160 169.528488,287.883453 169.360870,290.746887 
	C169.453583,291.502747 169.546280,292.258575 169.357224,293.899841 
	C169.431549,297.935608 169.505875,301.971405 169.296097,306.838409 
	C169.381378,309.163177 169.466644,311.487915 169.357040,314.702698 
	C169.419800,316.517517 169.482559,318.332367 169.277512,321.022247 
	C169.272964,333.833984 169.246933,346.645782 169.273682,359.457458 
	C169.285614,365.176910 170.535812,366.330658 176.397614,366.326721 
	C190.698486,366.317139 204.999374,366.295013 219.300217,366.311127 
	C225.522171,366.318146 226.285797,365.497192 226.059814,358.061981 
	C226.059814,346.118317 226.059814,334.174683 226.059814,321.640442 
	C231.046356,321.640442 235.547501,322.057220 239.942764,321.552277 
	C248.667267,320.549988 255.933044,322.603424 261.382111,330.617706 
	C268.101776,337.203796 274.821472,343.789917 281.563538,350.394348 
	C281.563538,350.394348 281.568695,350.423615 281.692047,351.094360 
	C285.941986,355.512573 290.080475,360.048004 294.518433,364.268463 
	C295.659698,365.353790 297.736633,365.895569 299.396942,365.924408 
	C311.496216,366.134491 323.598785,366.161957 335.700470,366.222229 
	C343.504181,366.261108 351.310394,366.358276 359.109833,366.181244 
	C360.518127,366.149231 362.193085,365.178955 363.159515,364.111755 
	C363.595184,363.630676 362.978607,361.358337 362.183258,360.731781 
	C354.919861,355.010284 347.511993,349.472260 340.124207,343.913910 
	C340.124207,343.913910 340.127167,343.885284 339.894836,343.332367 
	C339.380981,343.058075 338.867157,342.783783 338.291412,342.628723 
	C338.291412,342.628723 338.420319,342.590851 338.235657,342.067139 
	C337.900635,341.937408 337.565582,341.807648 337.189545,341.789490 
M307.155212,169.690308 
	C308.080902,170.177673 309.006592,170.665054 310.166809,171.652939 
	C310.504333,171.760742 310.841858,171.868530 311.291809,172.292160 
	C311.461456,172.465729 311.666412,172.535278 312.469299,172.962082 
	C315.464233,174.713531 318.459137,176.464966 321.824341,178.700867 
	C322.690308,179.183624 323.556274,179.666397 324.757904,180.702332 
	C325.150970,180.858200 325.544006,181.014069 326.256836,181.747574 
	C328.517578,183.067627 330.778351,184.387695 333.453857,186.131088 
	C333.646454,186.175171 333.839020,186.219238 334.343842,186.834000 
	C341.485535,191.256470 348.627228,195.678925 356.113617,200.699097 
	C359.316864,202.787003 362.549805,204.831070 365.716461,206.973083 
	C370.480621,210.195663 376.290710,209.388214 379.989105,204.915665 
	C383.489014,200.683167 383.134827,194.165207 378.787659,190.553680 
	C376.142517,188.356155 372.951416,186.815796 369.644012,184.415771 
	C361.424255,179.309479 353.204498,174.203186 344.601135,168.501358 
	C339.240723,166.426285 337.392487,162.452301 338.238586,156.933121 
	C338.383942,155.984955 338.102509,154.971344 338.245575,153.076401 
	C338.252838,147.594254 338.319824,142.111343 338.250305,136.630173 
	C338.182709,131.297913 335.945587,129.055496 330.758179,129.008133 
	C325.940796,128.964127 321.122345,128.960449 316.305023,129.007431 
	C311.220734,129.056992 309.020203,131.356323 309.257019,136.361557 
	C309.404358,139.475006 309.666962,142.582993 309.925110,146.390884 
	C304.185486,142.905365 299.090485,139.811310 293.457672,136.190186 
	C289.828644,134.115585 286.078033,132.225296 282.595490,129.928558 
	C274.997742,124.917824 267.558990,119.666687 260.008972,114.582550 
	C256.624237,112.303299 253.219894,112.179199 249.290573,115.058556 
	C236.585098,123.386414 223.879623,131.714279 210.474304,140.185165 
	C203.831390,144.526077 197.164764,148.831253 190.552109,153.217743 
	C183.684555,157.773315 176.869217,162.407562 169.338409,167.126617 
	C161.571335,172.148941 153.804276,177.171265 145.386429,182.389938 
	C141.704956,184.889343 137.857071,187.179443 134.383896,189.940842 
	C129.987579,193.436203 129.400192,199.560669 132.611008,204.237656 
	C135.978210,209.142441 141.265457,210.346100 146.516525,207.186172 
	C149.762344,205.232925 152.827927,202.980209 156.640152,200.713989 
	C163.506927,196.179184 170.373688,191.644379 177.898880,186.940979 
	C184.700546,182.539093 191.502228,178.137192 198.917633,173.358017 
	C207.679459,167.654236 216.441269,161.950455 225.438156,156.337585 
	C225.645279,156.297974 225.733582,156.173660 226.289062,155.902817 
	C226.524796,155.597687 226.760529,155.292557 227.684296,154.869797 
	C235.683731,149.533081 243.683182,144.196365 252.458328,138.554306 
	C254.589188,136.608475 256.506775,136.606094 258.941071,138.443192 
	C262.822113,141.372086 267.035858,143.860107 271.294098,146.755630 
	C271.294098,146.755630 271.581818,146.776108 271.945679,147.163269 
	C272.552490,147.483200 273.159271,147.803131 274.160828,148.684402 
	C283.670105,154.545761 293.179413,160.407120 302.713898,166.257446 
	C302.713898,166.257446 302.708160,166.284470 303.016907,166.856522 
	C304.301910,167.628769 305.586884,168.401031 306.936310,169.039795 
	C306.936310,169.039795 306.829376,169.142441 307.155212,169.690308 
M273.005737,248.400116 
	C274.753784,241.077423 271.794037,236.952576 264.567993,236.834641 
	C258.763153,236.739899 252.951447,236.677643 247.150406,236.852966 
	C242.156662,237.003906 240.073608,239.404892 240.052002,244.438690 
	C240.025497,250.611618 241.701920,252.884644 247.028122,253.056503 
	C253.316666,253.259415 259.647278,253.461090 265.896301,252.924774 
	C268.289825,252.719345 270.508270,250.473923 273.005737,248.400116 
z"/>
<path fill="#B7F7FA" opacity="1.000000" stroke="none" 
	d="
M195.986084,191.959686 
	C196.231064,191.681061 196.476059,191.402435 197.344467,191.087845 
	C198.645767,191.037216 199.323669,191.022568 200.132294,191.309265 
	C199.483032,192.962921 198.743378,194.340668 197.911530,195.660309 
	C197.107956,196.935104 196.209335,198.149979 195.352463,199.391205 
	C196.980667,199.907883 198.973068,201.301712 200.178879,200.801056 
	C209.007416,197.135406 217.395111,201.559494 225.974075,201.856277 
	C241.017548,202.376663 256.046234,203.685074 271.087433,203.794952 
	C282.802673,203.880539 294.523193,202.546661 306.249817,202.038681 
	C313.004608,201.746063 320.122101,203.434067 325.675812,197.781174 
	C330.768982,202.541367 335.862183,207.301544 340.839783,212.692322 
	C338.701752,214.545593 336.757233,216.657089 334.643738,216.842484 
	C323.421417,217.826935 312.155182,218.303299 300.907501,219.009064 
	C296.544739,219.282837 292.723389,220.579010 290.860718,225.062012 
	C285.415619,222.246201 279.970490,219.430405 273.768372,216.326416 
	C257.816833,216.044281 242.622299,216.050354 227.427750,216.056442 
	C227.352371,216.398605 227.145340,216.524948 226.306076,216.120667 
	C224.012878,212.746872 221.369522,211.907349 217.856384,211.904114 
	C211.566803,211.898300 205.246552,211.573654 198.998917,210.859314 
	C194.447601,210.338928 189.959351,209.104630 185.507187,207.942566 
	C182.982574,207.283630 182.415695,205.876083 184.348099,203.582779 
	C186.105911,201.496674 187.396912,199.017227 188.893692,196.711182 
	C190.406448,195.575043 191.919220,194.438919 193.939331,193.416183 
	C194.959793,193.006271 195.472931,192.482971 195.986084,191.959686 
z"/>
<path fill="#40ECF5" opacity="1.000000" stroke="none" 
	d="
M169.580200,306.007172 
	C169.505875,301.971405 169.431549,297.935608 169.841446,293.447235 
	C171.216171,291.995178 172.106689,290.995758 172.998596,289.998169 
	C173.000000,290.000000 172.996368,289.997559 173.405914,289.939453 
	C178.061447,289.860046 182.321533,289.605591 186.550690,289.861877 
	C198.486435,290.585144 210.509018,288.295013 222.391144,290.934479 
	C223.486801,291.177887 224.702835,290.866669 225.863541,290.832245 
	C233.228287,290.613678 241.193970,288.508148 247.822495,290.612549 
	C258.794189,294.095764 269.076630,289.761414 279.761902,290.488892 
	C294.608551,291.499603 309.688141,288.500885 324.607788,291.664734 
	C325.504700,291.854919 326.632965,291.660797 327.479034,291.268768 
	C332.678253,288.859894 336.767487,289.888519 339.680176,294.946289 
	C332.212769,303.839752 322.597198,309.447174 311.436279,312.803253 
	C312.991638,310.455597 314.876343,308.499176 317.238159,306.047516 
	C315.148376,305.607849 312.621216,305.410889 310.351929,304.541077 
	C300.186768,300.644775 289.590149,300.901001 279.014618,301.086975 
	C270.741547,301.232452 262.475647,301.758545 254.202789,301.959198 
	C250.287872,302.054138 246.364288,301.703247 242.444305,301.694244 
	C233.232452,301.673096 223.796371,303.001526 214.869339,301.421082 
	C205.303406,299.727509 196.169418,301.689026 186.850052,301.574524 
	C181.156479,301.504578 175.367340,301.273315 170.792297,306.004608 
	C170.595688,306.010437 170.202621,306.032379 170.048538,305.988525 
	C169.894455,305.944672 169.580200,306.007172 169.580200,306.007172 
z"/>
<path fill="#32E6F2" opacity="1.000000" stroke="none" 
	d="
M170.988892,305.998779 
	C175.367340,301.273315 181.156479,301.504578 186.850052,301.574524 
	C196.169418,301.689026 205.303406,299.727509 214.869339,301.421082 
	C223.796371,303.001526 233.232452,301.673096 242.444305,301.694244 
	C246.364288,301.703247 250.287872,302.054138 254.202789,301.959198 
	C262.475647,301.758545 270.741547,301.232452 279.014618,301.086975 
	C289.590149,300.901001 300.186768,300.644775 310.351929,304.541077 
	C312.621216,305.410889 315.148376,305.607849 317.238159,306.047516 
	C314.876343,308.499176 312.991638,310.455597 311.047791,312.772797 
	C310.988678,313.133606 310.737030,313.314331 310.161346,313.188538 
	C308.125244,313.632233 306.664825,314.201691 305.204407,314.771118 
	C305.099060,315.038055 304.903107,315.164642 304.101440,314.972992 
	C299.117126,311.358582 294.441772,309.418365 288.898560,312.452728 
	C288.106110,312.886505 286.690826,313.161194 286.054199,312.750092 
	C279.389923,308.446808 272.166931,311.322479 265.229736,311.139923 
	C262.598145,311.070679 259.790283,312.305359 257.338013,313.507294 
	C256.372528,313.980469 255.884933,315.940826 255.651886,317.304657 
	C254.800720,322.285583 259.352081,323.474915 262.001160,326.385498 
	C262.013275,327.812103 262.023407,328.849640 261.826294,329.906982 
	C261.619080,329.926849 261.208984,329.992462 261.208984,329.992462 
	C255.933044,322.603424 248.667267,320.549988 239.942764,321.552277 
	C235.547501,322.057220 231.046356,321.640442 226.059814,321.640442 
	C226.059814,334.174683 226.059814,346.118317 225.772079,358.379303 
	C225.278381,358.482086 225.125641,358.234680 225.031326,357.490540 
	C225.017227,350.012756 224.997940,342.998779 224.987183,335.523560 
	C224.984497,331.046967 224.973251,327.031677 225.033417,322.671112 
	C226.167236,320.668671 227.470337,319.116272 228.246140,317.334290 
	C230.425339,312.328827 228.760147,309.455109 223.406937,309.007507 
	C217.871994,308.544739 212.316818,308.323181 206.770142,308.002350 
	C202.656143,307.764343 198.542145,307.389587 194.426956,307.372955 
	C192.687836,307.365906 190.923630,308.046722 189.209991,308.548584 
	C186.626709,309.305145 184.129929,310.479980 181.502518,310.935272 
	C177.107941,311.696777 173.462433,313.128601 172.813934,318.149200 
	C172.392868,321.409027 172.260513,324.706146 171.838593,328.352661 
	C171.451431,331.137695 171.224503,333.556641 170.810150,335.964722 
	C170.622742,335.953857 170.250778,335.902649 170.213058,335.445038 
	C169.965332,330.040680 169.755341,325.093933 169.545334,320.147186 
	C169.482559,318.332367 169.419800,316.517517 169.631104,313.958374 
	C170.009262,311.787933 170.113327,310.361755 170.421432,308.701172 
	C170.746613,307.644073 170.867752,306.821411 170.988892,305.998779 
z"/>
<path fill="#CAF6FB" opacity="1.000000" stroke="none" 
	d="
M225.975449,172.229309 
	C242.190567,172.492767 258.545471,171.566910 274.570221,173.450180 
	C284.752258,174.646790 294.443726,180.017487 304.261292,183.838486 
	C303.966339,184.693359 303.457001,185.573288 303.609131,185.708389 
	C308.098053,189.694992 305.129578,190.913284 301.373596,191.295685 
	C294.131744,192.032959 286.847351,193.008179 279.598572,192.878403 
	C266.408691,192.642288 253.237152,191.525116 240.047943,191.058746 
	C231.446320,190.754562 222.825638,191.020126 214.217072,190.849899 
	C212.861771,190.823090 211.525452,189.836929 210.297012,189.341415 
	C211.833176,187.110565 212.909958,185.546829 214.146393,183.682312 
	C215.937683,182.060684 217.679977,180.853241 219.175461,179.393005 
	C221.529404,177.094498 223.717270,174.625900 225.975449,172.229309 
z"/>
<path fill="#4DEFF6" opacity="1.000000" stroke="none" 
	d="
M339.971863,294.753967 
	C336.767487,289.888519 332.678253,288.859894 327.479034,291.268768 
	C326.632965,291.660797 325.504700,291.854919 324.607788,291.664734 
	C309.688141,288.500885 294.608551,291.499603 279.761902,290.488892 
	C269.076630,289.761414 258.794189,294.095764 247.822495,290.612549 
	C241.193970,288.508148 233.228287,290.613678 225.863541,290.832245 
	C224.702835,290.866669 223.486801,291.177887 222.391144,290.934479 
	C210.509018,288.295013 198.486435,290.585144 186.550690,289.861877 
	C182.321533,289.605591 178.061447,289.860046 173.458893,289.565491 
	C174.932770,288.166229 176.719269,286.266266 178.602554,286.164948 
	C182.864853,285.935638 187.178192,286.881104 191.464828,286.831818 
	C201.017731,286.721924 210.568512,286.012726 220.117371,286.064484 
	C234.065582,286.140106 248.062546,286.072174 261.936035,287.262390 
	C268.672974,287.840332 274.660980,286.136047 280.906036,284.912231 
	C282.007782,284.696320 283.119781,283.330109 283.748566,282.223297 
	C284.452728,280.983734 284.612762,279.435059 285.009552,278.020874 
	C285.009552,278.020874 285.175598,277.768188 285.634460,277.748383 
	C286.364319,277.413208 286.635254,277.097839 286.906189,276.782471 
	C288.991821,274.903381 291.077484,273.024292 293.794159,271.182831 
	C296.343292,274.362671 299.092743,275.218903 302.747986,275.086823 
	C310.606812,274.802917 318.491089,275.223022 326.349701,274.936340 
	C334.483734,274.639648 342.601013,276.968964 350.733734,275.026520 
	C350.745117,275.023804 350.899384,275.619263 350.986938,275.935303 
	C347.412476,282.144104 343.837982,288.352875 339.971863,294.753967 
z"/>
<path fill="#C1F7FA" opacity="1.000000" stroke="none" 
	d="
M213.986740,183.983109 
	C212.909958,185.546829 211.833176,187.110565 210.297012,189.341415 
	C211.525452,189.836929 212.861771,190.823090 214.217072,190.849899 
	C222.825638,191.020126 231.446320,190.754562 240.047943,191.058746 
	C253.237152,191.525116 266.408691,192.642288 279.598572,192.878403 
	C286.847351,193.008179 294.131744,192.032959 301.373596,191.295685 
	C305.129578,190.913284 308.098053,189.694992 303.609131,185.708389 
	C303.457001,185.573288 303.966339,184.693359 304.463867,184.103546 
	C311.618622,188.413544 318.476868,192.780624 325.505463,197.464447 
	C320.122101,203.434067 313.004608,201.746063 306.249817,202.038681 
	C294.523193,202.546661 282.802673,203.880539 271.087433,203.794952 
	C256.046234,203.685074 241.017548,202.376663 225.974075,201.856277 
	C217.395111,201.559494 209.007416,197.135406 200.178879,200.801056 
	C198.973068,201.301712 196.980667,199.907883 195.352463,199.391205 
	C196.209335,198.149979 197.107956,196.935104 197.911530,195.660309 
	C198.743378,194.340668 199.483032,192.962921 200.500580,191.299500 
	C202.481567,190.124878 204.247314,189.303162 205.963333,188.388229 
	C208.655426,186.952896 211.313980,185.454681 213.986740,183.983109 
z"/>
<path fill="#D1F6F8" opacity="1.000000" stroke="none" 
	d="
M293.995483,136.717255 
	C299.090485,139.811310 304.185486,142.905365 309.925110,146.390884 
	C309.666962,142.582993 309.404358,139.475006 309.257019,136.361557 
	C309.020203,131.356323 311.220734,129.056992 316.305023,129.007431 
	C321.122345,128.960449 325.940796,128.964127 330.758179,129.008133 
	C335.945587,129.055496 338.182709,131.297913 338.250305,136.630173 
	C338.319824,142.111343 338.252838,147.594254 337.664490,153.536591 
	C332.016510,154.349121 326.721344,153.896759 321.939209,155.253113 
	C315.654480,157.035614 309.902466,157.973465 303.704529,155.075607 
	C302.172058,154.359100 299.652313,155.754059 297.586426,156.178406 
	C298.251465,158.033524 298.753174,159.970428 299.629303,161.719818 
	C300.440918,163.340317 301.652954,164.760239 302.688690,166.268478 
	C293.179413,160.407120 283.670105,154.545761 274.216217,148.184708 
	C273.375000,147.382050 272.478424,147.079071 271.581818,146.776108 
	C271.581818,146.776108 271.294098,146.755630 271.393250,146.313965 
	C269.815552,143.523941 268.138733,141.175613 266.488373,138.864334 
	C268.620636,138.593094 270.696808,137.979431 272.709045,138.144608 
	C277.124359,138.507019 281.527710,139.147751 285.893433,139.916382 
	C287.649597,140.225571 289.793304,142.139923 290.868500,141.587463 
	C292.353027,140.824661 292.993500,138.419174 293.995483,136.717255 
z"/>
<path fill="#1ADEF0" opacity="1.000000" stroke="none" 
	d="
M262.033508,329.887146 
	C262.023407,328.849640 262.013275,327.812103 262.265625,326.114044 
	C271.110565,324.303131 279.664429,322.697174 288.285156,322.155487 
	C294.492493,321.765442 300.791779,322.801270 304.257172,315.894012 
	C310.890320,321.076050 317.526337,326.254456 324.154327,331.443085 
	C325.566620,332.548676 326.949615,333.691711 328.479767,335.274048 
	C326.464661,341.791290 321.110687,342.530243 315.914856,342.925842 
	C304.290802,343.810944 292.639587,344.339966 280.701080,344.858643 
	C278.007446,342.717743 275.636017,340.702667 273.211395,338.753693 
	C269.504730,335.774170 265.761322,332.840363 262.033508,329.887146 
z"/>
<path fill="#77ECF2" opacity="1.000000" stroke="none" 
	d="
M351.268463,275.704712 
	C350.899384,275.619263 350.745117,275.023804 350.733734,275.026520 
	C342.601013,276.968964 334.483734,274.639648 326.349701,274.936340 
	C318.491089,275.223022 310.606812,274.802917 302.747986,275.086823 
	C299.092743,275.218903 296.343292,274.362671 294.089783,271.046082 
	C295.824554,265.826752 297.894714,260.781799 300.462952,255.364655 
	C303.382385,255.030975 305.811646,254.957947 308.223572,255.129013 
	C315.462860,255.642395 322.691010,256.606171 329.932190,256.696442 
	C334.678406,256.755676 339.499359,255.881821 344.168030,254.874954 
	C346.363678,254.401428 348.362762,252.749084 350.289307,251.400101 
	C351.366913,250.645569 352.113800,249.418732 353.462646,247.892105 
	C353.954865,252.851379 354.357025,256.903503 354.759216,260.955658 
	C353.689484,265.795135 352.619720,270.634644 351.268463,275.704712 
z"/>
<path fill="#ABF4F9" opacity="1.000000" stroke="none" 
	d="
M188.539276,196.778809 
	C187.396912,199.017227 186.105911,201.496674 184.348099,203.582779 
	C182.415695,205.876083 182.982574,207.283630 185.507187,207.942566 
	C189.959351,209.104630 194.447601,210.338928 198.998917,210.859314 
	C205.246552,211.573654 211.566803,211.898300 217.856384,211.904114 
	C221.369522,211.907349 224.012878,212.746872 226.139908,216.001129 
	C226.309921,218.835922 226.145554,221.475433 225.548340,224.565765 
	C224.243149,225.419617 222.827866,225.617035 222.584961,226.258453 
	C220.763214,231.068985 216.888107,231.311264 212.711395,230.995377 
	C200.754410,230.090988 188.923553,229.586197 177.171356,225.743698 
	C170.706985,223.630142 170.334320,220.452133 170.081558,215.638535 
	C169.985611,213.811615 170.054428,211.976059 170.048157,210.144440 
	C176.093719,205.711761 182.139282,201.279099 188.539276,196.778809 
z"/>
<path fill="#DBF7FB" opacity="1.000000" stroke="none" 
	d="
M293.726562,136.453720 
	C292.993500,138.419174 292.353027,140.824661 290.868500,141.587463 
	C289.793304,142.139923 287.649597,140.225571 285.893433,139.916382 
	C281.527710,139.147751 277.124359,138.507019 272.709045,138.144608 
	C270.696808,137.979431 268.620636,138.593094 266.488373,138.864334 
	C268.138733,141.175613 269.815552,143.523941 271.300629,146.203430 
	C267.035858,143.860107 262.822113,141.372086 258.941071,138.443192 
	C256.506775,136.606094 254.589188,136.608475 252.157074,138.272842 
	C250.968826,131.640701 249.739426,131.117935 244.582428,134.145996 
	C241.511353,135.949249 238.057053,137.097260 234.783783,138.559433 
	C230.541458,140.454468 226.308823,142.371170 222.070190,144.274490 
	C218.700226,145.787720 217.039139,144.642746 217.155396,140.702301 
	C223.659393,136.109406 230.209610,132.084045 236.278687,127.431099 
	C241.156860,123.691170 245.452454,119.191330 250.006546,115.028679 
	C253.219894,112.179199 256.624237,112.303299 260.008972,114.582550 
	C267.558990,119.666687 274.997742,124.917824 282.595490,129.928558 
	C286.078033,132.225296 289.828644,134.115585 293.726562,136.453720 
z"/>
<path fill="#15C2E5" opacity="1.000000" stroke="none" 
	d="
M340.146301,343.880676 
	C347.511993,349.472260 354.919861,355.010284 362.183258,360.731781 
	C362.978607,361.358337 363.595184,363.630676 363.159515,364.111755 
	C362.193085,365.178955 360.518127,366.149231 359.109833,366.181244 
	C351.310394,366.358276 343.504181,366.261108 335.700470,366.222229 
	C323.598785,366.161957 311.496216,366.134491 299.396942,365.924408 
	C297.736633,365.895569 295.659698,365.353790 294.518433,364.268463 
	C290.080475,360.048004 285.941986,355.512573 281.998474,350.678589 
	C283.174164,350.668457 284.335632,350.844208 284.865143,351.517151 
	C288.191620,355.744720 292.180023,356.544006 297.234344,354.906860 
	C299.823029,354.068359 302.778320,354.109100 305.559418,354.166290 
	C312.842712,354.316162 320.120514,354.864410 327.402222,354.899811 
	C330.502563,354.914886 333.636902,354.189270 336.703247,353.548706 
	C341.911621,352.460754 337.692993,347.696381 339.752167,345.310242 
	C340.043945,344.972107 340.022675,344.363861 340.146301,343.880676 
z"/>
<path fill="#77ECF2" opacity="1.000000" stroke="none" 
	d="
M225.967560,256.938812 
	C226.717499,266.772522 225.566223,268.025604 215.913925,268.022491 
	C202.606323,268.018188 189.297058,267.923828 175.992020,268.114075 
	C171.260834,268.181732 169.232300,266.170929 169.291534,261.628326 
	C169.304520,260.631683 169.218796,259.634125 169.213928,258.636810 
	C169.181656,252.019730 170.087357,251.083267 176.582977,251.033020 
	C186.228989,250.958405 195.875061,250.892288 206.354645,250.870850 
	C207.456665,250.944275 207.725128,250.969391 207.996460,250.997009 
	C207.999313,250.999527 208.004913,251.004929 208.004379,251.406906 
	C207.837906,255.841797 210.282898,256.799683 213.378754,255.613998 
	C217.382355,254.080643 221.138519,251.901184 225.002899,250.415009 
	C225.325562,252.866333 225.646561,254.902573 225.967560,256.938812 
z"/>
<path fill="#93EFF5" opacity="1.000000" stroke="none" 
	d="
M226.061066,256.484680 
	C225.646561,254.902573 225.325562,252.866333 225.005219,250.080750 
	C225.003174,248.885712 225.000473,248.440002 224.997375,247.749161 
	C224.996994,247.504013 224.992722,247.013733 224.996216,246.610748 
	C224.999695,244.504395 224.999695,242.801010 224.999695,240.721848 
	C219.301605,245.201324 218.366989,245.332703 211.357315,243.426300 
	C210.691025,243.245087 209.831329,243.774948 209.061432,243.974701 
	C206.995209,242.955566 204.957047,241.129379 202.857941,241.056381 
	C193.563766,240.733307 184.251648,240.861084 174.946960,240.938629 
	C171.298523,240.969009 169.275925,239.599030 169.334702,235.722733 
	C169.460541,227.424271 169.527924,219.124924 169.833710,210.485199 
	C170.054428,211.976059 169.985611,213.811615 170.081558,215.638535 
	C170.334320,220.452133 170.706985,223.630142 177.171356,225.743698 
	C188.923553,229.586197 200.754410,230.090988 212.711395,230.995377 
	C216.888107,231.311264 220.763214,231.068985 222.584961,226.258453 
	C222.827866,225.617035 224.243149,225.419617 225.478363,225.004852 
	C225.893600,225.758240 225.945999,226.523361 225.687286,227.951538 
	C225.568283,230.722794 225.760406,232.830978 225.952515,234.939178 
	C226.019852,241.969620 226.087204,249.000076 226.061066,256.484680 
z"/>
<path fill="#4DE2EE" opacity="1.000000" stroke="none" 
	d="
M284.618378,278.050720 
	C284.612762,279.435059 284.452728,280.983734 283.748566,282.223297 
	C283.119781,283.330109 282.007782,284.696320 280.906036,284.912231 
	C274.660980,286.136047 268.672974,287.840332 261.936035,287.262390 
	C248.062546,286.072174 234.065582,286.140106 220.117371,286.064484 
	C210.568512,286.012726 201.017731,286.721924 191.464828,286.831818 
	C187.178192,286.881104 182.864853,285.935638 178.602554,286.164948 
	C176.719269,286.266266 174.932770,288.166229 173.049347,289.623627 
	C172.996368,289.997559 173.000000,290.000000 172.659821,289.998871 
	C171.416321,290.003723 170.513016,290.009735 169.609711,290.015747 
	C169.528488,287.883453 169.447281,285.751160 169.653107,283.141235 
	C169.940170,282.663635 169.972275,282.268524 169.972275,282.268524 
	C172.169464,281.515503 174.363892,280.116028 176.564270,280.106567 
	C208.552460,279.969025 240.541748,280.083801 272.529846,279.935852 
	C276.431732,279.917816 280.328217,278.727539 284.618378,278.050720 
z"/>
<path fill="#CAF6FB" opacity="1.000000" stroke="none" 
	d="
M302.701294,166.262970 
	C301.652954,164.760239 300.440918,163.340317 299.629303,161.719818 
	C298.753174,159.970428 298.251465,158.033524 297.586426,156.178406 
	C299.652313,155.754059 302.172058,154.359100 303.704529,155.075607 
	C309.902466,157.973465 315.654480,157.035614 321.939209,155.253113 
	C326.721344,153.896759 332.016510,154.349121 337.550812,153.992371 
	C338.102509,154.971344 338.383942,155.984955 338.238586,156.933121 
	C337.392487,162.452301 339.240723,166.426285 344.739532,169.174835 
	C343.136810,175.517502 336.367096,179.044495 330.967377,175.437241 
	C325.485321,171.774933 323.915253,174.964935 321.454041,178.216400 
	C318.459137,176.464966 315.464233,174.713531 312.083862,172.622437 
	C311.541809,172.152832 311.368805,172.050674 311.179382,171.976318 
	C310.841858,171.868530 310.504333,171.760742 310.005493,171.040939 
	C308.839264,170.000107 307.834320,169.571274 306.829376,169.142441 
	C306.829376,169.142441 306.936310,169.039795 306.894714,168.726898 
	C305.471436,167.704163 304.089783,166.994324 302.708160,166.284485 
	C302.708160,166.284470 302.713898,166.257446 302.701294,166.262970 
z"/>
<path fill="#93EFF5" opacity="1.000000" stroke="none" 
	d="
M300.246948,245.965927 
	C300.064423,244.692368 299.881866,243.418793 299.796631,241.460297 
	C298.847321,233.819656 300.302643,232.379333 307.680511,231.950851 
	C315.914368,231.472641 324.222626,231.156128 332.313385,229.723755 
	C337.782288,228.755554 344.654480,231.183304 348.415375,224.592789 
	C348.415375,224.592789 348.462250,224.723114 348.411255,224.937515 
	C348.562408,225.437866 348.764587,225.723816 348.966766,226.009766 
	C348.966766,226.009766 349.009552,226.012390 349.043762,226.304596 
	C349.365631,227.048141 349.653259,227.499481 349.940918,227.950836 
	C350.419037,229.008499 350.897217,230.066162 351.073914,231.629593 
	C350.457245,233.407516 349.833282,234.692215 349.884308,235.949493 
	C350.042999,239.857086 349.398041,242.727219 344.575317,243.140976 
	C335.571472,243.913452 326.601654,245.076401 317.604523,245.939911 
	C316.184387,246.076202 314.650940,245.139053 313.246796,245.314331 
	C309.500153,245.782043 305.511108,242.607605 301.698059,246.028564 
	C301.021210,245.993683 300.634064,245.979813 300.246948,245.965927 
z"/>
<path fill="#15CEEB" opacity="1.000000" stroke="none" 
	d="
M340.135254,343.897278 
	C340.022675,344.363861 340.043945,344.972107 339.752167,345.310242 
	C337.692993,347.696381 341.911621,352.460754 336.703247,353.548706 
	C333.636902,354.189270 330.502563,354.914886 327.402222,354.899811 
	C320.120514,354.864410 312.842712,354.316162 305.559418,354.166290 
	C302.778320,354.109100 299.823029,354.068359 297.234344,354.906860 
	C292.180023,356.544006 288.191620,355.744720 284.865143,351.517151 
	C284.335632,350.844208 283.174164,350.668457 281.936768,350.343201 
	C281.568695,350.423615 281.563538,350.394348 281.680054,349.996582 
	C281.530823,348.070557 281.265137,346.542297 280.999451,345.014038 
	C292.639587,344.339966 304.290802,343.810944 315.914856,342.925842 
	C321.110687,342.530243 326.464661,341.791290 328.784637,335.433167 
	C331.244324,336.803345 333.532806,338.470917 336.071381,340.695007 
	C336.649933,341.424194 336.978333,341.596954 337.306763,341.769714 
	C337.306763,341.769714 337.189545,341.789490 337.286438,342.013672 
	C337.729004,342.355560 338.074677,342.473206 338.420319,342.590851 
	C338.420319,342.590851 338.291412,342.628723 338.357971,342.898163 
	C338.992096,343.406830 339.559631,343.646057 340.127167,343.885284 
	C340.127167,343.885284 340.124207,343.913910 340.135254,343.897278 
z"/>
<path fill="#ABF4F9" opacity="1.000000" stroke="none" 
	d="
M348.343018,224.249741 
	C344.654480,231.183304 337.782288,228.755554 332.313385,229.723755 
	C324.222626,231.156128 315.914368,231.472641 307.680511,231.950851 
	C300.302643,232.379333 298.847321,233.819656 299.885193,241.204376 
	C296.949249,236.325317 294.022156,231.017242 290.977875,225.385590 
	C292.723389,220.579010 296.544739,219.282837 300.907501,219.009064 
	C312.155182,218.303299 323.421417,217.826935 334.643738,216.842484 
	C336.757233,216.657089 338.701752,214.545593 340.929291,213.010345 
	C343.513123,216.434097 345.891876,220.170395 348.343018,224.249741 
z"/>
<path fill="#C1F7FA" opacity="1.000000" stroke="none" 
	d="
M321.639191,178.458649 
	C323.915253,174.964935 325.485321,171.774933 330.967377,175.437241 
	C336.367096,179.044495 343.136810,175.517502 344.931335,169.472610 
	C353.204498,174.203186 361.424255,179.309479 369.820374,185.096283 
	C370.092163,189.240936 368.399200,190.718201 364.949768,191.082947 
	C360.921265,191.508896 356.952911,192.503387 353.401703,193.168243 
	C354.435455,196.195969 355.102173,198.148682 355.768890,200.101379 
	C348.627228,195.678925 341.485535,191.256470 334.134216,186.367813 
	C333.629456,185.837006 333.334259,185.772369 333.039093,185.707748 
	C330.778351,184.387695 328.517578,183.067627 325.918701,181.194656 
	C325.194458,180.477554 324.808350,180.313354 324.422241,180.149155 
	C323.556274,179.666397 322.690308,179.183624 321.639191,178.458649 
z"/>
<path fill="#15C2E5" opacity="1.000000" stroke="none" 
	d="
M169.411423,320.584717 
	C169.755341,325.093933 169.965332,330.040680 170.145386,335.875549 
	C170.772964,342.171600 171.346298,347.592560 172.183304,352.972534 
	C172.302170,353.736481 173.670441,354.824951 174.514450,354.876373 
	C182.283127,355.349457 190.070053,355.521240 197.839142,355.989075 
	C206.908051,356.535156 215.964355,357.290070 225.026138,357.954346 
	C225.125641,358.234680 225.278381,358.482086 225.655884,358.833679 
	C226.285797,365.497192 225.522171,366.318146 219.300217,366.311127 
	C204.999374,366.295013 190.698486,366.317139 176.397614,366.326721 
	C170.535812,366.330658 169.285614,365.176910 169.273682,359.457458 
	C169.246933,346.645782 169.272964,333.833984 169.411423,320.584717 
z"/>
<path fill="#C1F7FA" opacity="1.000000" stroke="none" 
	d="
M198.303894,173.735306 
	C191.502228,178.137192 184.700546,182.539093 177.325684,186.849350 
	C176.912903,185.637894 177.073334,184.518082 177.162155,183.898102 
	C174.589081,183.224533 172.275543,182.001129 170.103088,182.214462 
	C167.664032,182.453979 165.393814,184.119461 162.966095,184.904694 
	C161.923981,185.241760 160.456314,185.308151 159.562607,184.811981 
	C158.251877,184.084320 157.083725,182.859985 156.315063,181.572510 
	C156.133881,181.269028 157.682175,179.732864 158.618301,178.997177 
	C162.624313,175.848877 166.733673,172.830444 170.678314,169.609085 
	C170.973740,169.367828 170.270203,167.903290 170.031052,167.007416 
	C176.869217,162.407562 183.684555,157.773315 190.552109,153.217743 
	C197.164764,148.831253 203.831390,144.526077 211.099213,140.129059 
	C212.151718,140.382858 212.579346,140.692764 212.847229,141.304657 
	C208.457977,144.738525 204.228455,147.870438 199.721405,151.137756 
	C198.629318,152.180893 197.814743,153.088623 197.000092,153.998169 
	C197.000000,154.000000 196.996338,153.999191 196.681793,154.048935 
	C195.910583,154.730438 195.453918,155.362198 194.998627,155.996979 
	C195.000000,156.000000 194.993820,155.996948 194.606171,155.997681 
	C187.331787,157.327286 182.887238,162.336960 178.211014,166.882950 
	C177.507294,167.567062 177.996109,169.477905 177.933289,170.821289 
	C179.311157,170.869034 180.715942,171.099411 182.057678,170.901794 
	C182.987335,170.764862 183.843903,170.062347 184.709503,169.570923 
	C190.857300,166.080582 195.167496,167.397079 198.303894,173.735306 
z"/>
<path fill="#86F2F8" opacity="1.000000" stroke="none" 
	d="
M301.987793,246.049561 
	C305.511108,242.607605 309.500153,245.782043 313.246796,245.314331 
	C314.650940,245.139053 316.184387,246.076202 317.604523,245.939911 
	C326.601654,245.076401 335.571472,243.913452 344.575317,243.140976 
	C349.398041,242.727219 350.042999,239.857086 349.884308,235.949493 
	C349.833282,234.692215 350.457245,233.407516 351.116760,231.980621 
	C355.245728,240.906662 355.632751,250.409744 354.863800,260.499573 
	C354.357025,256.903503 353.954865,252.851379 353.462646,247.892105 
	C352.113800,249.418732 351.366913,250.645569 350.289307,251.400101 
	C348.362762,252.749084 346.363678,254.401428 344.168030,254.874954 
	C339.499359,255.881821 334.678406,256.755676 329.932190,256.696442 
	C322.691010,256.606171 315.462860,255.642395 308.223572,255.129013 
	C305.811646,254.957947 303.382385,255.030975 300.565552,254.991608 
	C300.173401,253.894394 300.176727,252.798019 300.582458,251.101578 
	C301.319183,249.017532 301.653473,247.533554 301.987793,246.049561 
z"/>
<path fill="#D1F6F8" opacity="1.000000" stroke="none" 
	d="
M199.998932,151.002350 
	C204.228455,147.870438 208.457977,144.738525 213.245834,141.304047 
	C214.867386,141.000595 215.930618,140.999680 216.993835,140.998779 
	C217.039139,144.642746 218.700226,145.787720 222.070190,144.274490 
	C226.308823,142.371170 230.541458,140.454468 234.783783,138.559433 
	C238.057053,137.097260 241.511353,135.949249 244.582428,134.145996 
	C249.739426,131.117935 250.968826,131.640701 251.769211,138.425507 
	C243.683182,144.196365 235.683731,149.533081 227.331604,154.573181 
	C226.572693,153.672668 226.066986,152.497772 225.774841,152.548660 
	C219.033325,153.723175 212.306732,154.989563 205.596451,156.334137 
	C202.866867,156.881088 200.206360,157.844177 197.460541,158.190430 
	C196.741913,158.281036 195.821533,156.771576 194.993820,155.996948 
	C194.993820,155.996948 195.000000,156.000000 195.314224,155.949158 
	C196.084412,155.265289 196.540375,154.632233 196.996338,153.999191 
	C196.996338,153.999191 197.000000,154.000000 197.367371,153.988632 
	C198.489456,152.985626 199.244202,151.993988 199.998932,151.002350 
z"/>
<path fill="#28E6F3" opacity="1.000000" stroke="none" 
	d="
M304.233398,315.699921 
	C300.791779,322.801270 294.492493,321.765442 288.285156,322.155487 
	C279.664429,322.697174 271.110565,324.303131 262.263611,325.724915 
	C259.352081,323.474915 254.800720,322.285583 255.651886,317.304657 
	C255.884933,315.940826 256.372528,313.980469 257.338013,313.507294 
	C259.790283,312.305359 262.598145,311.070679 265.229736,311.139923 
	C272.166931,311.322479 279.389923,308.446808 286.054199,312.750092 
	C286.690826,313.161194 288.106110,312.886505 288.898560,312.452728 
	C294.441772,309.418365 299.117126,311.358582 303.916595,314.955811 
	C304.246765,315.116486 304.209595,315.505829 304.233398,315.699921 
z"/>
<path fill="#B7F7FA" opacity="1.000000" stroke="none" 
	d="
M169.684723,167.067017 
	C170.270203,167.903290 170.973740,169.367828 170.678314,169.609085 
	C166.733673,172.830444 162.624313,175.848877 158.618301,178.997177 
	C157.682175,179.732864 156.133881,181.269028 156.315063,181.572510 
	C157.083725,182.859985 158.251877,184.084320 159.562607,184.811981 
	C160.456314,185.308151 161.923981,185.241760 162.966095,184.904694 
	C165.393814,184.119461 167.664032,182.453979 170.103088,182.214462 
	C172.275543,182.001129 174.589081,183.224533 177.162155,183.898102 
	C177.073334,184.518082 176.912903,185.637894 176.996475,186.933655 
	C170.373688,191.644379 163.506927,196.179184 156.298889,200.415100 
	C151.501923,194.426453 145.306854,196.113205 138.781876,195.973923 
	C140.353455,192.315918 142.478561,189.224625 144.448471,186.037415 
	C145.167877,184.873459 145.518402,183.481537 146.037216,182.193604 
	C153.804276,177.171265 161.571335,172.148941 169.684723,167.067017 
z"/>
<path fill="#93EFF5" opacity="1.000000" stroke="none" 
	d="
M272.906128,248.779099 
	C270.508270,250.473923 268.289825,252.719345 265.896301,252.924774 
	C259.647278,253.461090 253.316666,253.259415 247.028122,253.056503 
	C241.701920,252.884644 240.025497,250.611618 240.052002,244.438690 
	C240.073608,239.404892 242.156662,237.003906 247.150406,236.852966 
	C252.951447,236.677643 258.763153,236.739899 264.567993,236.834641 
	C271.794037,236.952576 274.753784,241.077423 272.906128,248.779099 
z"/>
<path fill="#CAF6FB" opacity="1.000000" stroke="none" 
	d="
M194.606171,155.997681 
	C195.821533,156.771576 196.741913,158.281036 197.460541,158.190430 
	C200.206360,157.844177 202.866867,156.881088 205.596451,156.334137 
	C212.306732,154.989563 219.033325,153.723175 225.774841,152.548660 
	C226.066986,152.497772 226.572693,153.672668 226.987579,154.631989 
	C226.760529,155.292557 226.524796,155.597687 225.912155,155.979950 
	C225.535248,156.057098 225.203079,156.246674 225.203079,156.246674 
	C216.441269,161.950455 207.679459,167.654236 198.610764,173.546661 
	C195.167496,167.397079 190.857300,166.080582 184.709503,169.570923 
	C183.843903,170.062347 182.987335,170.764862 182.057678,170.901794 
	C180.715942,171.099411 179.311157,170.869034 177.933289,170.821289 
	C177.996109,169.477905 177.507294,167.567062 178.211014,166.882950 
	C182.887238,162.336960 187.331787,157.327286 194.606171,155.997681 
z"/>
<path fill="#ABF4F9" opacity="1.000000" stroke="none" 
	d="
M355.941254,200.400238 
	C355.102173,198.148682 354.435455,196.195969 353.401703,193.168243 
	C356.952911,192.503387 360.921265,191.508896 364.949768,191.082947 
	C368.399200,190.718201 370.092163,189.240936 370.001160,185.378510 
	C372.951416,186.815796 376.142517,188.356155 378.787659,190.553680 
	C383.134827,194.165207 383.489014,200.683167 379.989105,204.915665 
	C376.290710,209.388214 370.480621,210.195663 365.716461,206.973083 
	C362.549805,204.831070 359.316864,202.787003 355.941254,200.400238 
z"/>
<path fill="#ABF4F9" opacity="1.000000" stroke="none" 
	d="
M145.711823,182.291779 
	C145.518402,183.481537 145.167877,184.873459 144.448471,186.037415 
	C142.478561,189.224625 140.353455,192.315918 138.781876,195.973923 
	C145.306854,196.113205 151.501923,194.426453 155.966034,200.489075 
	C152.827927,202.980209 149.762344,205.232925 146.516525,207.186172 
	C141.265457,210.346100 135.978210,209.142441 132.611008,204.237656 
	C129.400192,199.560669 129.987579,193.436203 134.383896,189.940842 
	C137.857071,187.179443 141.704956,184.889343 145.711823,182.291779 
z"/>
<path fill="#86F2F8" opacity="1.000000" stroke="none" 
	d="
M224.997772,247.994308 
	C225.000473,248.440002 225.003174,248.885712 225.003555,249.665680 
	C221.138519,251.901184 217.382355,254.080643 213.378754,255.613998 
	C210.282898,256.799683 207.837906,255.841797 208.324997,251.398956 
	C212.576599,250.515472 209.684219,249.143631 209.030914,248.066589 
	C209.016968,246.975143 209.003036,245.883698 209.025269,244.383484 
	C209.831329,243.774948 210.691025,243.245087 211.357315,243.426300 
	C218.366989,245.332703 219.301605,245.201324 224.999695,240.721848 
	C224.999695,242.801010 224.999695,244.504395 224.845612,246.702271 
	C224.793625,247.462616 224.895691,247.728455 224.997772,247.994308 
z"/>
<path fill="#CAF6FB" opacity="1.000000" stroke="none" 
	d="
M217.155396,140.702301 
	C215.930618,140.999680 214.867386,141.000595 213.405563,141.002090 
	C212.579346,140.692764 212.151718,140.382858 211.449127,140.057526 
	C223.879623,131.714279 236.585098,123.386414 249.648560,115.043617 
	C245.452454,119.191330 241.156860,123.691170 236.278687,127.431099 
	C230.209610,132.084045 223.659393,136.109406 217.155396,140.702301 
z"/>
<path fill="#ABF4F9" opacity="1.000000" stroke="none" 
	d="
M214.146393,183.682312 
	C211.313980,185.454681 208.655426,186.952896 205.963333,188.388229 
	C204.247314,189.303162 202.481567,190.124878 200.369843,190.998169 
	C199.323669,191.022568 198.645767,191.037216 197.629288,191.065964 
	C206.623566,184.790039 215.956451,178.500015 225.632385,172.219666 
	C223.717270,174.625900 221.529404,177.094498 219.175461,179.393005 
	C217.679977,180.853241 215.937683,182.060684 214.146393,183.682312 
z"/>
<path fill="#15C2E5" opacity="1.000000" stroke="none" 
	d="
M280.701080,344.858643 
	C281.265137,346.542297 281.530823,348.070557 281.668823,349.987427 
	C274.821472,343.789917 268.101776,337.203796 261.295532,330.305084 
	C261.208984,329.992462 261.619080,329.926849 261.826294,329.906982 
	C265.761322,332.840363 269.504730,335.774170 273.211395,338.753693 
	C275.636017,340.702667 278.007446,342.717743 280.701080,344.858643 
z"/>
<path fill="#ABF4F9" opacity="1.000000" stroke="none" 
	d="
M227.841125,216.247986 
	C242.622299,216.050354 257.816833,216.044281 273.387695,216.142273 
	C258.594147,216.310745 243.424332,216.375137 227.841125,216.247986 
z"/>
<path fill="#4DEFF6" opacity="1.000000" stroke="none" 
	d="
M169.485291,290.381317 
	C170.513016,290.009735 171.416321,290.003723 172.658417,289.997040 
	C172.106689,290.995758 171.216171,291.995178 169.982330,293.004517 
	C169.546280,292.258575 169.453583,291.502747 169.485291,290.381317 
z"/>
<path fill="#77ECF2" opacity="1.000000" stroke="none" 
	d="
M301.698059,246.028564 
	C301.653473,247.533554 301.319183,249.017532 300.733765,250.716156 
	C300.345032,249.550385 300.207336,248.170013 300.158295,246.377777 
	C300.634064,245.979813 301.021210,245.993683 301.698059,246.028564 
z"/>
<path fill="#77ECF2" opacity="1.000000" stroke="none" 
	d="
M208.842087,248.244446 
	C209.684219,249.143631 212.576599,250.515472 208.325531,250.996979 
	C208.004913,251.004929 207.999313,250.999527 207.937561,250.825043 
	C207.760712,250.433594 207.610748,250.244232 207.425934,250.082428 
	C207.835052,249.529068 208.244156,248.975693 208.842087,248.244446 
z"/>
<path fill="#D1F6F8" opacity="1.000000" stroke="none" 
	d="
M302.862549,166.570496 
	C304.089783,166.994324 305.471436,167.704163 306.862488,168.793640 
	C305.586884,168.401031 304.301910,167.628769 302.862549,166.570496 
z"/>
<path fill="#15C2E5" opacity="1.000000" stroke="none" 
	d="
M170.217377,308.935608 
	C170.113327,310.361755 170.009262,311.787933 169.728546,313.513367 
	C169.466644,311.487915 169.381378,309.163177 169.438141,306.422791 
	C169.580200,306.007172 169.894455,305.944672 170.001526,306.351349 
	C170.144852,307.483887 170.181122,308.209747 170.217377,308.935608 
z"/>
<path fill="#ABF4F9" opacity="1.000000" stroke="none" 
	d="
M226.041443,234.516937 
	C225.760406,232.830978 225.568283,230.722794 225.608215,228.328674 
	C225.936966,230.060074 226.033661,232.077377 226.041443,234.516937 
z"/>
<path fill="#DBF7FB" opacity="1.000000" stroke="none" 
	d="
M271.763733,146.969696 
	C272.478424,147.079071 273.375000,147.382050 274.018860,147.904053 
	C273.159271,147.803131 272.552490,147.483200 271.763733,146.969696 
z"/>
<path fill="#D1F6F8" opacity="1.000000" stroke="none" 
	d="
M306.992310,169.416382 
	C307.834320,169.571274 308.839264,170.000107 309.888245,170.790680 
	C309.006592,170.665054 308.080902,170.177673 306.992310,169.416382 
z"/>
<path fill="#40ECF5" opacity="1.000000" stroke="none" 
	d="
M305.610352,314.817749 
	C306.664825,314.201691 308.125244,313.632233 310.040955,313.091125 
	C309.002899,313.701111 307.509583,314.282745 305.610352,314.817749 
z"/>
<path fill="#ABF4F9" opacity="1.000000" stroke="none" 
	d="
M195.691345,191.987381 
	C195.472931,192.482971 194.959793,193.006271 194.249176,193.343994 
	C194.500000,192.777313 194.948318,192.396210 195.691345,191.987381 
z"/>
<path fill="#15C2E5" opacity="1.000000" stroke="none" 
	d="
M340.010986,343.608826 
	C339.559631,343.646057 338.992096,343.406830 338.388947,342.838562 
	C338.867157,342.783783 339.380981,343.058075 340.010986,343.608826 
z"/>
<path fill="#ABF4F9" opacity="1.000000" stroke="none" 
	d="
M349.960388,227.666107 
	C349.653259,227.499481 349.365631,227.048141 349.029877,226.320923 
	C349.314453,226.490509 349.647156,226.935959 349.960388,227.666107 
z"/>
<path fill="#D1F6F8" opacity="1.000000" stroke="none" 
	d="
M311.235596,172.134247 
	C311.368805,172.050674 311.541809,172.152832 311.802551,172.391815 
	C311.666412,172.535278 311.461456,172.465729 311.235596,172.134247 
z"/>
<path fill="#CAF6FB" opacity="1.000000" stroke="none" 
	d="
M324.590088,180.425751 
	C324.808350,180.313354 325.194458,180.477554 325.758820,180.905838 
	C325.544006,181.014069 325.150970,180.858200 324.590088,180.425751 
z"/>
<path fill="#CAF6FB" opacity="1.000000" stroke="none" 
	d="
M333.246460,185.919418 
	C333.334259,185.772369 333.629456,185.837006 333.978119,186.082458 
	C333.839020,186.219238 333.646454,186.175171 333.246460,185.919418 
z"/>
<path fill="#15C2E5" opacity="1.000000" stroke="none" 
	d="
M169.828949,282.289093 
	C169.972275,282.268524 169.940170,282.663635 169.862518,282.729126 
	C169.784851,282.794586 169.588364,282.581970 169.588364,282.581970 
	C169.588364,282.581970 169.685608,282.309662 169.828949,282.289093 
z"/>
<path fill="#4DE2EE" opacity="1.000000" stroke="none" 
	d="
M286.610107,276.883423 
	C286.635254,277.097839 286.364319,277.413208 285.777893,277.796295 
	C285.746277,277.570801 286.030151,277.277588 286.610107,276.883423 
z"/>
<path fill="#ABF4F9" opacity="1.000000" stroke="none" 
	d="
M348.960754,225.740784 
	C348.764587,225.723816 348.562408,225.437866 348.371643,224.880997 
	C348.573608,224.897308 348.764191,225.184555 348.960754,225.740784 
z"/>
<path fill="#D1F6F8" opacity="1.000000" stroke="none" 
	d="
M225.320618,156.292130 
	C225.203079,156.246674 225.535248,156.057098 225.619156,156.010880 
	C225.733582,156.173660 225.645279,156.297974 225.320618,156.292130 
z"/>
<path fill="#15C2E5" opacity="1.000000" stroke="none" 
	d="
M337.208313,341.503479 
	C336.978333,341.596954 336.649933,341.424194 336.230682,340.979553 
	C336.463196,340.884216 336.786530,341.060760 337.208313,341.503479 
z"/>
<path fill="#15C2E5" opacity="1.000000" stroke="none" 
	d="
M338.328003,342.328979 
	C338.074677,342.473206 337.729004,342.355560 337.306946,341.957886 
	C337.565582,341.807648 337.900635,341.937408 338.328003,342.328979 
z"/>
<path fill="#86F2F8" opacity="1.000000" stroke="none" 
	d="
M207.109558,250.197479 
	C207.610748,250.244232 207.760712,250.433594 207.934723,250.822525 
	C207.725128,250.969391 207.456665,250.944275 206.784637,250.882019 
	C206.518448,250.667435 206.655807,250.489975 207.109558,250.197479 
z"/>
<path fill="#4DE2EE" opacity="1.000000" stroke="none" 
	d="
M170.421417,308.701172 
	C170.181122,308.209747 170.144852,307.483887 170.155609,306.395203 
	C170.202621,306.032379 170.595688,306.010437 170.792297,306.004608 
	C170.867752,306.821411 170.746613,307.644073 170.421417,308.701172 
z"/>
<path fill="#15CEEB" opacity="1.000000" stroke="none" 
	d="
M225.031326,357.490540 
	C215.964355,357.290070 206.908051,356.535156 197.839142,355.989075 
	C190.070053,355.521240 182.283127,355.349457 174.514450,354.876373 
	C173.670441,354.824951 172.302170,353.736481 172.183304,352.972534 
	C171.346298,347.592560 170.772964,342.171600 170.183105,336.333191 
	C170.250778,335.902649 170.622742,335.953857 171.259949,335.974701 
	C182.906631,336.331604 193.921616,337.026398 204.923370,336.857727 
	C210.735931,336.768616 216.525436,335.175446 222.754593,334.193665 
	C223.045898,334.428253 224.012268,335.206543 224.978653,335.984833 
	C224.997940,342.998779 225.017227,350.012756 225.031326,357.490540 
z"/>
<path fill="#28E6F3" opacity="1.000000" stroke="none" 
	d="
M171.998810,327.986572 
	C172.260513,324.706146 172.392868,321.409027 172.813934,318.149200 
	C173.462433,313.128601 177.107941,311.696777 181.502518,310.935272 
	C184.129929,310.479980 186.626709,309.305145 189.209991,308.548584 
	C190.923630,308.046722 192.687836,307.365906 194.426956,307.372955 
	C198.542145,307.389587 202.656143,307.764343 206.770142,308.002350 
	C212.316818,308.323181 217.871994,308.544739 223.406937,309.007507 
	C228.760147,309.455109 230.425339,312.328827 228.246140,317.334290 
	C227.470337,319.116272 226.167236,320.668671 224.647095,322.720032 
	C219.660187,323.531616 215.137695,324.054657 210.600266,324.340759 
	C204.352448,324.734711 197.576401,323.543304 191.972122,325.603302 
	C185.224564,328.083466 178.705643,327.746643 171.998810,327.986572 
z"/>
<path fill="#1ADEF0" opacity="1.000000" stroke="none" 
	d="
M171.838593,328.352661 
	C178.705643,327.746643 185.224564,328.083466 191.972122,325.603302 
	C197.576401,323.543304 204.352448,324.734711 210.600266,324.340759 
	C215.137695,324.054657 219.660187,323.531616 224.575684,323.065308 
	C224.973251,327.031677 224.984497,331.046967 224.987183,335.523560 
	C224.012268,335.206543 223.045898,334.428253 222.754593,334.193665 
	C216.525436,335.175446 210.735931,336.768616 204.923370,336.857727 
	C193.921616,337.026398 182.906631,336.331604 171.447357,335.985565 
	C171.224503,333.556641 171.451431,331.137695 171.838593,328.352661 
z"/>
<path fill="#77ECF2" opacity="1.000000" stroke="none" 
	d="
M224.997375,247.749161 
	C224.895691,247.728455 224.793625,247.462616 224.842133,247.105255 
	C224.992722,247.013733 224.996994,247.504013 224.997375,247.749161 
z"/>
<path fill="#CAF6FB" opacity="1.000000" stroke="none" 
	d="
M199.721405,151.137756 
	C199.244202,151.993988 198.489456,152.985626 197.367462,153.986816 
	C197.814743,153.088623 198.629318,152.180893 199.721405,151.137756 
z"/>
<path fill="#CAF6FB" opacity="1.000000" stroke="none" 
	d="
M196.681793,154.048935 
	C196.540375,154.632233 196.084412,155.265289 195.312836,155.946152 
	C195.453918,155.362198 195.910583,154.730438 196.681793,154.048935 
z"/>
</svg>